<svg xmlns="http://www.w3.org/2000/svg" width="24" height="24" fill="currentColor" viewBox="0 0 24 24">
  <path d="M7 18c-1.104 0-2 .896-2 2s.896 2 2 2 2-.896 
       2-2-.896-2-2-2zm0 2.5c-.276 0-.5-.224-.5-.5s.224-.5.5-.5.5.224.5.5-.224.5-.5.5zm10-2.5c-1.104
       0-2 .896-2 2s.896 2 2 2 2-.896 
       2-2-.896-2-2-2zm0 2.5c-.276 0-.5-.224-.5-.5s.224-.5.5-.5.5.224.5.5-.224.5-.5.5zM7.01 15.528l-.75-1.301 
       11.64-1.58 2.1-9.647h-15.58l-.42-2h-3v2h1.58l3.45 
       14.528h13.67v-2h-12.69z"></path>
</svg>
